<svg xmlns="http://www.w3.org/2000/svg" width="512" height="512" style="" viewBox="0 0 512 512" data-svgdocument="" id="simpublishlogo" xmlns:xlink="http://www.w3.org/1999/xlink">
    <defs transform="matrix(0.8159736487962912, 0, 0, 0.8159736487962912, -40.576474536205794, 140.74186526835007)"></defs>
    <path d="M78.9,88.1v-3.9h-3.6v-32h4.4v-6.3h-3.4c-0.9-13.7-11.8-24.6-25.5-25.6v-6.5h11.1l-3.3-4.3l3.3-4.3H50.7h-1.2h-2.7v15  c-13.7,1-24.6,11.9-25.5,25.6H18v6.3h6.8v32h-3.6v3.9h-5.3v6.6h68.3v-6.6H78.9z M38.4,84.2h-6.2v-32h6.2V84.2z M53.1,84.2h-7.3v-32  h7.3V84.2z M67.8,84.2h-7.3v-32h7.3V84.2z" stroke="none" fill="#0097cf" transform="matrix(1.6286250542929963, 0, 0, 1.6286250542929963, 174.4873175185059, 115.82351475648818)" stroke-width="1"></path>
    <path stroke="none" fill="#3f444d" transform="matrix(2.3404709433942457, 0, 0, 0.9148789812484015, 49.17023876564445, 211.55800717864784)" stroke-width="1" data-type="rect" data-x="0" data-y="84.525" data-width="176.742" data-height="7.219" d="M0 84.525H176.742 V91.744 H0 Z"></path>
    <path stroke="none" fill="#d41313" transform="matrix(2.3404709433942457, 0, 0, 0.6696810608105487, 49.17023876564445, 223.0495282893749)" stroke-width="1" data-type="rect" data-x="0" data-y="84.525" data-width="176.742" data-height="7.219" d="M0 84.525H176.742 V91.744 H0 Z"></path>
    <path text="simpublish" text-anchor="middle" font-size="100" letter-spacing="0" side="left" offset="0.5" dx="0" dy="0" space="preserve" href="" font-family="Fjalla One" font-scale="contain" transform="matrix(0.6932542923690751, 0, 0, 0.6932542923690751, 255.0181368632352, 362.230935299276)" x="0" y="0" fill="#3f444d" data-fl-textpath="" id="_atS6oA1NFQd5yIWW_sllM" d="M-210.2304296875-14.06L-210.2304296875-14.06Q-210.2304296875-16.26 -209.8104296875-18.31Q-209.4004296875-20.36 -209.0104296875-21.58L-209.0104296875-21.58L-200.3204296875-21.58Q-200.3204296875-17.92 -199.9504296875-15.45Q-199.5804296875-12.99 -198.7504296875-11.52Q-197.9204296875-10.06 -196.5304296875-9.42Q-195.1404296875-8.79 -193.1404296875-8.79L-193.1404296875-8.79Q-190.36042968750002-8.79 -189.0904296875-10.35Q-187.8204296875-11.91 -187.8204296875-13.96L-187.8204296875-13.96Q-187.8204296875-15.04 -188.11042968750002-16.02Q-188.4004296875-16.99 -188.9404296875-17.99Q-189.4804296875-18.99 -190.2604296875-20.02Q-191.0404296875-21.04 -192.02042968749998-22.27L-192.02042968749998-22.27L-201.0504296875-32.91Q-202.8104296875-35.11 -204.4404296875-37.38Q-206.0804296875-39.65 -207.3204296875-42.07Q-208.5704296875-44.48 -209.3304296875-47.12Q-210.0804296875-49.76 -210.0804296875-52.69L-210.0804296875-52.69Q-210.0804296875-56.59 -208.7404296875-59.47Q-207.4004296875-62.35 -205.1304296875-64.26Q-202.8604296875-66.16 -199.8804296875-67.09Q-196.9004296875-68.02 -193.5804296875-68.02L-193.5804296875-68.02Q-189.9204296875-68.02 -186.9904296875-67.14Q-184.0604296875-66.26 -181.9604296875-64.5Q-179.86042968750002-62.74 -178.7304296875-60.13Q-177.61042968750002-57.52 -177.61042968750002-54.05L-177.61042968750002-54.05Q-177.61042968750002-51.71 -178.0304296875-49.51Q-178.4404296875-47.31 -178.8304296875-45.75L-178.8304296875-45.75L-187.3804296875-45.75Q-187.4304296875-49.07 -187.6704296875-51.56Q-187.9104296875-54.05 -188.5704296875-55.69Q-189.2304296875-57.32 -190.3804296875-58.15Q-191.5304296875-58.98 -193.3804296875-58.98L-193.3804296875-58.98Q-194.9904296875-58.98 -196.0704296875-58.47Q-197.1404296875-57.96 -197.8004296875-57.13Q-198.4604296875-56.3 -198.7304296875-55.27Q-199.0004296875-54.25 -199.0004296875-53.17L-199.0004296875-53.17Q-199.0004296875-50.83 -197.8804296875-48.83Q-196.7504296875-46.83 -194.9004296875-44.48L-194.9004296875-44.48L-185.0304296875-32.91Q-183.9604296875-31.59 -182.5404296875-29.71Q-181.1304296875-27.83 -179.86042968750002-25.56Q-178.5904296875-23.29 -177.7104296875-20.61Q-176.8304296875-17.92 -176.8304296875-14.99L-176.8304296875-14.99Q-176.8304296875-11.43 -177.9504296875-8.52Q-179.0804296875-5.62 -181.27042968749998-3.56Q-183.4704296875-1.51 -186.6704296875-0.39Q-189.8704296875 0.73 -193.9704296875 0.73L-193.9704296875 0.73Q-197.3404296875 0.73 -200.3204296875-0.02Q-203.3004296875-0.78 -205.4904296875-2.51Q-207.6904296875-4.25 -208.9604296875-7.08Q-210.2304296875-9.91 -210.2304296875-14.06ZM-160.5219140625-76.86L-160.5219140625-76.86Q-163.9419140625-76.86 -165.9219140625-78.91Q-167.8919140625-80.96 -167.8919140625-84.91L-167.8919140625-84.91Q-167.8919140625-87.11 -167.3819140625-88.6Q-166.8719140625-90.09 -165.9219140625-90.99Q-164.9619140625-91.89 -163.6019140625-92.31Q-162.2319140625-92.72 -160.4719140625-92.72L-160.4719140625-92.72Q-156.8119140625-92.72 -154.9119140625-90.87Q-153.0019140625-89.01 -153.0019140625-84.91L-153.0019140625-84.91Q-153.0019140625-81.1 -154.9319140625-78.98Q-156.8619140625-76.86 -160.5219140625-76.86ZM-166.9219140625 0L-166.9219140625-67.24L-154.5619140625-67.24L-154.5619140625 0L-166.9219140625 0ZM-141.6724609375 0L-141.6724609375-67.24L-132.1024609375-67.24L-131.0324609375-60.06L-131.0324609375-60.01Q-129.5624609375-62.3 -127.9024609375-63.84Q-126.2424609375-65.38 -124.4624609375-66.31Q-122.6824609375-67.24 -120.8024609375-67.63Q-118.9224609375-68.02 -117.06246093749999-68.02L-117.06246093749999-68.02Q-113.1124609375-68.02 -110.3724609375-66.11Q-107.6424609375-64.21 -106.2224609375-60.4L-106.2224609375-60.4Q-104.76246093750001-62.6 -103.1224609375-64.06Q-101.4924609375-65.53 -99.73246093750001-66.41Q-97.9724609375-67.29 -96.1624609375-67.65Q-94.3624609375-68.02 -92.50246093749999-68.02L-92.50246093749999-68.02Q-86.6424609375-68.02 -83.4424609375-63.89Q-80.2524609375-59.77 -80.2524609375-51.51L-80.2524609375-51.51L-80.2524609375 0L-92.6024609375 0L-92.6024609375-51.07Q-92.6024609375-53.27 -92.9424609375-54.79Q-93.28246093749999-56.3 -93.9724609375-57.23Q-94.6524609375-58.15 -95.73246093750001-58.57Q-96.8024609375-58.98 -98.31246093749999-58.98L-98.31246093749999-58.98Q-100.0224609375-58.98 -101.73246093750001-57.74Q-103.4424609375-56.49 -104.8624609375-54.3L-104.8624609375-54.3Q-104.81246093749999-53.86 -104.81246093749999-53.42Q-104.81246093749999-52.98 -104.81246093749999-52.54L-104.81246093749999-52.54L-104.81246093749999 0L-117.1624609375 0L-117.1624609375-51.07Q-117.1624609375-53.27 -117.5024609375-54.79Q-117.8424609375-56.3 -118.5324609375-57.23Q-119.2124609375-58.15 -120.2924609375-58.57Q-121.3624609375-58.98 -122.8724609375-58.98L-122.8724609375-58.98Q-124.5324609375-58.98 -126.2424609375-57.76Q-127.9524609375-56.54 -129.3224609375-54.39L-129.3224609375-54.39L-129.3224609375 0L-141.6724609375 0ZM-55.4937109375-4.44L-55.1037109375 3.81L-55.1037109375 21.73L-67.4537109375 21.73L-67.4537109375-67.24L-57.783710937500004-67.24L-56.6637109375-60.16Q-55.8337109375-61.52 -54.683710937499995-62.94Q-53.543710937499995-64.36 -52.0037109375-65.45Q-50.4637109375-66.55 -48.533710937500004-67.26Q-46.6037109375-67.97 -44.2137109375-67.97L-44.2137109375-67.97Q-43.183710937499995-67.97 -41.7437109375-67.77Q-40.3037109375-67.58 -38.7737109375-66.8Q-37.2337109375-66.02 -35.6937109375-64.48Q-34.1537109375-62.94 -32.9637109375-60.25Q-31.7637109375-57.57 -31.003710937500003-53.56Q-30.253710937500003-49.56 -30.253710937500003-43.85L-30.253710937500003-43.85L-30.253710937500003-23.49Q-30.253710937500003-17.77 -31.003710937500003-13.77Q-31.7637109375-9.77 -32.9837109375-7.08Q-34.2037109375-4.39 -35.7637109375-2.83Q-37.3337109375-1.27 -38.9437109375-0.49Q-40.5537109375 0.29 -42.063710937500005 0.51Q-43.5837109375 0.73 -44.7037109375 0.73L-44.7037109375 0.73Q-48.6037109375 0.73 -51.2237109375-0.78Q-53.8337109375-2.29 -55.4937109375-4.44L-55.4937109375-4.44ZM-55.1037109375-54.35L-55.1037109375-13.72Q-54.7137109375-12.74 -54.1537109375-11.87Q-53.5937109375-10.99 -52.8337109375-10.3Q-52.073710937499996-9.62 -51.1237109375-9.2Q-50.173710937500005-8.79 -48.9037109375-8.79L-48.9037109375-8.79Q-47.533710937500004-8.79 -46.4137109375-9.3Q-45.283710937500004-9.81 -44.4537109375-11.16Q-43.6237109375-12.5 -43.1637109375-14.89Q-42.7037109375-17.29 -42.7037109375-21.04L-42.7037109375-21.04L-42.7037109375-46.78Q-42.7037109375-50.54 -43.1637109375-52.91Q-43.6237109375-55.27 -44.433710937499995-56.64Q-45.2437109375-58.01 -46.3637109375-58.5Q-47.4837109375-58.98 -48.8537109375-58.98L-48.8537109375-58.98Q-51.1937109375-58.98 -52.683710937499995-57.59Q-54.173710937500005-56.2 -55.1037109375-54.35L-55.1037109375-54.35ZM-19.0138671875-15.72L-19.0138671875-67.24L-6.663867187499999-67.24L-6.663867187499999-16.7Q-6.663867187499999-12.26 -5.293867187499998-10.52Q-3.933867187499999-8.79 -1.2938671874999983-8.79L-1.2938671874999983-8.79Q 0.5661328125000011-8.79  2.316132812500001-9.81Q 4.076132812499999-10.84  5.496132812500001-12.74L 5.496132812500001-12.74L 5.496132812500001-67.24L 17.846132812500002-67.24L 17.846132812500002 0L 8.4261328125 0L 7.206132812500002-7.18L 7.156132812499997-7.18Q 5.686132812499999-4.88  4.0561328125-3.34Q 2.416132812499999-1.81  0.6361328125000014-0.9Q-1.1438671874999997 0 -3.003867187499999 0.39Q-4.853867187500001 0.78 -6.7138671875 0.78L-6.7138671875 0.78Q-12.6238671875 0.78 -15.8238671875-3.32Q-19.0138671875-7.42 -19.0138671875-15.72L-19.0138671875-15.72ZM 30.7396484375 0L 30.7396484375-88.82L 43.0896484375-88.82L 43.0896484375-70.9L 42.6996484375-62.01L 42.7496484375-61.96Q 43.5796484375-63.13  44.6796484375-64.21Q 45.7796484375-65.28  47.1696484375-66.14Q 48.5596484375-66.99  50.2396484375-67.48Q 51.9296484375-67.97  53.9296484375-67.97L 53.9296484375-67.97Q 54.9596484375-67.97  56.3996484375-67.77Q 57.8396484375-67.58  59.3796484375-66.8Q 60.9096484375-66.02  62.4496484375-64.48Q 63.9896484375-62.94  65.1896484375-60.25Q 66.37964843750001-57.57  67.1396484375-53.56Q 67.89964843749999-49.56  67.89964843749999-43.85L 67.89964843749999-43.85L 67.89964843749999-23.49Q 67.89964843749999-17.77  67.1396484375-13.77Q 66.37964843750001-9.77  65.15964843750001-7.06Q 63.9396484375-4.35  62.3796484375-2.78Q 60.8196484375-1.22  59.1996484375-0.44Q 57.5896484375 0.34  56.0796484375 0.56Q 54.5696484375 0.78  53.4396484375 0.78L 53.4396484375 0.78Q 51.0996484375 0.78  49.2196484375 0.2Q 47.3396484375-0.39  45.899648437500005-1.39Q 44.4596484375-2.39  43.3596484375-3.66Q 42.259648437500005-4.93  41.4296484375-6.25L 41.4296484375-6.25L 40.409648437499996 0L 30.7396484375 0ZM 43.0896484375-54.44L 43.0896484375-13.62Q 43.4796484375-12.7  44.0396484375-11.82Q 44.5996484375-10.94  45.3396484375-10.28Q 46.0696484375-9.62  47.0496484375-9.2Q 48.019648437499995-8.79  49.2396484375-8.79L 49.2396484375-8.79Q 50.6096484375-8.79  51.7296484375-9.3Q 52.8596484375-9.81  53.6896484375-11.16Q 54.519648437499995-12.5  54.9796484375-14.89Q 55.4396484375-17.29  55.4396484375-21.04L 55.4396484375-21.04L 55.4396484375-46.78Q 55.4396484375-50.54  54.9796484375-52.91Q 54.519648437499995-55.27  53.7096484375-56.64Q 52.909648437499996-58.01  51.7796484375-58.5Q 50.659648437499996-58.98  49.2896484375-58.98L 49.2896484375-58.98Q 46.9996484375-58.98  45.509648437500005-57.64Q 44.019648437499995-56.3  43.0896484375-54.44L 43.0896484375-54.44ZM 79.2206640625 0L 79.2206640625-88.82L 91.5806640625-88.82L 91.5806640625 0L 79.2206640625 0ZM 111.0601171875-76.86L 111.0601171875-76.86Q 107.6401171875-76.86  105.6601171875-78.91Q 103.6901171875-80.96  103.6901171875-84.91L 103.6901171875-84.91Q 103.6901171875-87.11  104.2001171875-88.6Q 104.7101171875-90.09  105.6601171875-90.99Q 106.6201171875-91.89  107.9801171875-92.31Q 109.3501171875-92.72  111.1101171875-92.72L 111.1101171875-92.72Q 114.7701171875-92.72  116.6701171875-90.87Q 118.58011718750001-89.01  118.58011718750001-84.91L 118.58011718750001-84.91Q 118.58011718750001-81.1  116.6501171875-78.98Q 114.7201171875-76.86  111.0601171875-76.86ZM 104.6601171875 0L 104.6601171875-67.24L 117.0201171875-67.24L 117.0201171875 0L 104.6601171875 0ZM 127.2695703125-14.06L 127.2695703125-14.06Q 127.2695703125-16.26  127.6895703125-18.31Q 128.0995703125-20.36  128.4895703125-21.58L 128.4895703125-21.58L 137.1795703125-21.58Q 137.1795703125-17.92  137.5495703125-15.45Q 137.9195703125-12.99  138.7495703125-11.52Q 139.5795703125-10.06  140.9695703125-9.42Q 142.3595703125-8.79  144.3595703125-8.79L 144.3595703125-8.79Q 147.13957031249998-8.79  148.4095703125-10.35Q 149.6795703125-11.91  149.6795703125-13.96L 149.6795703125-13.96Q 149.6795703125-15.04  149.38957031249998-16.02Q 149.0995703125-16.99  148.5595703125-17.99Q 148.0195703125-18.99  147.2395703125-20.02Q 146.4595703125-21.04  145.47957031250002-22.27L 145.47957031250002-22.27L 136.4495703125-32.91Q 134.6895703125-35.11  133.0595703125-37.38Q 131.4195703125-39.65  130.1795703125-42.07Q 128.9295703125-44.48  128.1695703125-47.12Q 127.4195703125-49.76  127.4195703125-52.69L 127.4195703125-52.69Q 127.4195703125-56.59  128.7595703125-59.47Q 130.0995703125-62.35  132.3695703125-64.26Q 134.6395703125-66.16  137.6195703125-67.09Q 140.5995703125-68.02  143.9195703125-68.02L 143.9195703125-68.02Q 147.5795703125-68.02  150.5095703125-67.14Q 153.4395703125-66.26  155.5395703125-64.5Q 157.63957031249998-62.74  158.7695703125-60.13Q 159.88957031249998-57.52  159.88957031249998-54.05L 159.88957031249998-54.05Q 159.88957031249998-51.71  159.4695703125-49.51Q 159.0595703125-47.31  158.6695703125-45.75L 158.6695703125-45.75L 150.1195703125-45.75Q 150.0695703125-49.07  149.8295703125-51.56Q 149.5895703125-54.05  148.9295703125-55.69Q 148.2695703125-57.32  147.1195703125-58.15Q 145.9695703125-58.98  144.1195703125-58.98L 144.1195703125-58.98Q 142.5095703125-58.98  141.4295703125-58.47Q 140.3595703125-57.96  139.6995703125-57.13Q 139.0395703125-56.3  138.7695703125-55.27Q 138.4995703125-54.25  138.4995703125-53.17L 138.4995703125-53.17Q 138.4995703125-50.83  139.6195703125-48.83Q 140.7495703125-46.83  142.5995703125-44.48L 142.5995703125-44.48L 152.4695703125-32.91Q 153.5395703125-31.59  154.9595703125-29.71Q 156.3695703125-27.83  157.63957031249998-25.56Q 158.9095703125-23.29  159.7895703125-20.61Q 160.6695703125-17.92  160.6695703125-14.99L 160.6695703125-14.99Q 160.6695703125-11.43  159.5495703125-8.52Q 158.4195703125-5.62  156.22957031250002-3.56Q 154.0295703125-1.51  150.8295703125-0.39Q 147.6295703125 0.73  143.5295703125 0.73L 143.5295703125 0.73Q 140.1595703125 0.73  137.1795703125-0.02Q 134.1995703125-0.78  132.0095703125-2.51Q 129.8095703125-4.25  128.5395703125-7.08Q 127.2695703125-9.91  127.2695703125-14.06ZM 170.3880859375 0L 170.3880859375-88.82L 182.7380859375-88.82L 182.7380859375-73L 182.1080859375-61.47Q 183.4680859375-63.38  185.0580859375-64.62Q 186.6480859375-65.87  188.3280859375-66.63Q 190.0180859375-67.38  191.7480859375-67.7Q 193.4780859375-68.02  195.1880859375-68.02L 195.1880859375-68.02Q 201.0980859375-68.02  204.2980859375-63.89Q 207.4980859375-59.77  207.4980859375-51.51L 207.4980859375-51.51L 207.4980859375 0L 195.1380859375 0L 195.1380859375-51.07Q 195.1380859375-55.52  193.7780859375-57.25Q 192.4080859375-58.98  189.7680859375-58.98L 189.7680859375-58.98Q 187.9180859375-58.98  186.0380859375-57.74Q 184.1580859375-56.49  182.7380859375-54.3L 182.7380859375-54.3L 182.7380859375 0L 170.3880859375 0Z"></path>
    <path stroke="none" fill="#3f444d" transform="matrix(-2.3404709433942457, 0, 0, -0.9148789812484015, 462.82976123435554, 456.28339967207216)" stroke-width="1" data-type="rect" data-x="0" data-y="84.525" data-width="176.742" data-height="7.219" d="M0 84.525H176.742 V91.744 H0 Z"></path>
    <path stroke="none" fill="#d41313" transform="matrix(-2.3404709433942457, 0, 0, -0.6696810608105487, 462.82976123435554, 444.7919046149625)" stroke-width="1" data-type="rect" data-x="0" data-y="84.525" data-width="176.742" data-height="7.219" d="M0 84.525H176.742 V91.744 H0 Z"></path>
</svg>